<svg width="1200" height="900" viewBox="0 0 1200 900" fill="none" xmlns="http://www.w3.org/2000/svg">
  <defs>
    <linearGradient id="bg" x1="0" y1="0" x2="1200" y2="900" gradientUnits="userSpaceOnUse">
      <stop stop-color="#1A6F3A" />
      <stop offset="1" stop-color="#0B6F3A" />
    </linearGradient>
  </defs>
  <rect width="1200" height="900" rx="48" fill="url(#bg)" />
  <rect x="120" y="120" width="960" height="540" rx="32" fill="#fff" opacity="0.12" />
  <rect x="160" y="180" width="640" height="380" rx="24" fill="#ffffff" opacity="0.18" />
  <rect x="190" y="220" width="560" height="42" rx="14" fill="#0b6f3a" />
  <rect x="190" y="290" width="520" height="28" rx="12" fill="#fff" opacity="0.7" />
  <rect x="190" y="340" width="520" height="28" rx="12" fill="#fff" opacity="0.7" />
  <rect x="190" y="390" width="280" height="28" rx="12" fill="#fff" opacity="0.7" />
  <rect x="190" y="450" width="170" height="36" rx="18" fill="#00A3E0" />
  <circle cx="900" cy="520" r="110" fill="#ffffff" opacity="0.2" />
  <rect x="840" y="440" width="140" height="160" rx="24" fill="#fff" opacity="0.24" />
  <path d="M870 500H960" stroke="#fff" stroke-width="16" stroke-linecap="round" />
  <path d="M870 560H920" stroke="#fff" stroke-width="16" stroke-linecap="round" />
  <circle cx="900" cy="620" r="22" fill="#00A3E0" />
  <text x="140" y="780" font-family="Inter, sans-serif" font-size="72" font-weight="700" fill="#fff">Websites</text>
</svg>
