<svg width="1200" height="900" viewBox="0 0 1200 900" fill="none" xmlns="http://www.w3.org/2000/svg">
  <defs>
    <linearGradient id="bg3" x1="0" y1="0" x2="1200" y2="900" gradientUnits="userSpaceOnUse">
      <stop stop-color="#12A16B" />
      <stop offset="1" stop-color="#0B6F3A" />
    </linearGradient>
  </defs>
  <rect width="1200" height="900" rx="48" fill="url(#bg3)" />
  <rect x="120" y="140" width="960" height="560" rx="36" fill="#fff" opacity="0.12" />
  <rect x="220" y="220" width="760" height="420" rx="32" fill="#fff" opacity="0.2" />
  <rect x="280" y="300" width="520" height="46" rx="20" fill="#fff" />
  <rect x="280" y="380" width="600" height="32" rx="16" fill="#fff" opacity="0.85" />
  <rect x="280" y="430" width="470" height="32" rx="16" fill="#fff" opacity="0.85" />
  <rect x="280" y="490" width="540" height="32" rx="16" fill="#fff" opacity="0.85" />
  <rect x="280" y="550" width="310" height="32" rx="16" fill="#fff" opacity="0.85" />
  <rect x="760" y="250" width="140" height="24" rx="12" fill="#00A3E0" />
  <rect x="760" y="290" width="180" height="24" rx="12" fill="#00A3E0" />
  <circle cx="860" cy="500" r="95" fill="#fff" opacity="0.22" />
  <path d="M820 520L900 520" stroke="#fff" stroke-width="18" stroke-linecap="round" />
  <path d="M860 480L860 560" stroke="#fff" stroke-width="18" stroke-linecap="round" />
  <text x="140" y="820" font-family="Inter, sans-serif" font-size="72" font-weight="700" fill="#fff">Content</text>
</svg>
