<svg width="1200" height="900" viewBox="0 0 1200 900" fill="none" xmlns="http://www.w3.org/2000/svg">
  <defs>
    <linearGradient id="bg7" x1="0" y1="0" x2="1200" y2="900" gradientUnits="userSpaceOnUse">
      <stop stop-color="#0B6F3A" />
      <stop offset="1" stop-color="#0A3A18" />
    </linearGradient>
  </defs>
  <rect width="1200" height="900" rx="48" fill="url(#bg7)" />
  <rect x="180" y="220" width="380" height="340" rx="40" fill="#fff" opacity="0.14" />
  <rect x="230" y="280" width="280" height="42" rx="21" fill="#00A3E0" />
  <rect x="230" y="340" width="320" height="24" rx="12" fill="#fff" opacity="0.8" />
  <rect x="230" y="380" width="320" height="24" rx="12" fill="#fff" opacity="0.8" />
  <rect x="230" y="420" width="260" height="24" rx="12" fill="#fff" opacity="0.8" />
  <circle cx="820" cy="420" r="150" fill="#fff" opacity="0.18" />
  <path d="M760 420C760 370 800 340 860 340C920 340 960 370 960 420C960 470 920 500 860 500C800 500 760 470 760 420Z" fill="#00A3E0" />
  <path d="M840 390C840 390 860 420 840 450" stroke="#fff" stroke-width="14" stroke-linecap="round" />
  <path d="M840 450C840 450 820 420 840 390" stroke="#fff" stroke-width="14" stroke-linecap="round" />
  <text x="140" y="820" font-family="Inter, sans-serif" font-size="72" font-weight="700" fill="#fff">Coach</text>
</svg>
