<svg width="1200" height="900" viewBox="0 0 1200 900" fill="none" xmlns="http://www.w3.org/2000/svg">
  <defs>
    <linearGradient id="bg" x1="0" y1="0" x2="1" y2="1">
      <stop offset="0%" stop-color="#0f172a" />
      <stop offset="100%" stop-color="#0f766e" />
    </linearGradient>
    <linearGradient id="shine" x1="0" y1="0" x2="1" y2="1">
      <stop offset="0%" stop-color="rgba(255,255,255,0.25)" />
      <stop offset="100%" stop-color="rgba(255,255,255,0)" />
    </linearGradient>
  </defs>
  <rect width="1200" height="900" rx="48" fill="url(#bg)" />
  <rect x="72" y="72" width="1056" height="520" rx="32" fill="#0f172a" />
  <rect x="96" y="110" width="420" height="36" rx="18" fill="#22c55e" />
  <rect x="96" y="164" width="280" height="24" rx="12" fill="#94a3b8" />
  <rect x="96" y="208" width="520" height="280" rx="24" fill="#111827" />
  <rect x="96" y="208" width="520" height="280" rx="24" fill="url(#shine)" />
  <rect x="96" y="520" width="420" height="36" rx="18" fill="#22c55e" />
  <rect x="96" y="580" width="360" height="24" rx="12" fill="#cbd5e1" />
  <rect x="96" y="620" width="520" height="24" rx="12" fill="#cbd5e1" />
  <rect x="96" y="660" width="360" height="24" rx="12" fill="#cbd5e1" />
  <rect x="648" y="208" width="360" height="220" rx="22" fill="#111827" />
  <rect x="684" y="248" width="296" height="24" rx="12" fill="#22c55e" />
  <rect x="684" y="294" width="236" height="24" rx="12" fill="#e2e8f0" />
  <rect x="684" y="338" width="296" height="24" rx="12" fill="#e2e8f0" />
  <rect x="684" y="382" width="180" height="24" rx="12" fill="#e2e8f0" />
  <circle cx="840" cy="595" r="88" fill="#0f172a" />
  <circle cx="828" cy="580" r="56" fill="#22c55e" />
  <path d="M784 602C784 572 808 548 840 548C872 548 896 572 896 602V640H784V602Z" fill="#0f172a" />
  <path d="M720 744C720 692 762 654 816 654H984C1038 654 1080 692 1080 744V806H720V744Z" fill="#111827" />
  <rect x="744" y="774" width="280" height="24" rx="12" fill="#94a3b8" />
  <rect x="744" y="818" width="220" height="24" rx="12" fill="#94a3b8" />
</svg>
