<svg width="1200" height="900" viewBox="0 0 1200 900" fill="none" xmlns="http://www.w3.org/2000/svg">
  <defs>
    <linearGradient id="bg4" x1="0" y1="0" x2="1200" y2="900" gradientUnits="userSpaceOnUse">
      <stop stop-color="#0B6F3A" />
      <stop offset="1" stop-color="#083D24" />
    </linearGradient>
    <linearGradient id="screen" x1="400" y1="300" x2="760" y2="620" gradientUnits="userSpaceOnUse">
      <stop stop-color="#fff" stop-opacity="0.9" />
      <stop offset="1" stop-color="#F8FAFC" stop-opacity="0.7" />
    </linearGradient>
  </defs>
  <rect width="1200" height="900" rx="48" fill="url(#bg4)" />
  <circle cx="320" cy="360" r="180" fill="#fff" opacity="0.08" />
  <circle cx="920" cy="520" r="130" fill="#fff" opacity="0.12" />
  <rect x="260" y="240" width="680" height="420" rx="48" fill="url(#screen)" />
  <rect x="300" y="300" width="600" height="300" rx="32" fill="#E2F3FF" opacity="0.8" />
  <rect x="340" y="340" width="520" height="26" rx="13" fill="#0b6f3a" />
  <rect x="340" y="390" width="420" height="22" rx="11" fill="#0b6f3a" opacity="0.8" />
  <rect x="340" y="430" width="420" height="22" rx="11" fill="#0b6f3a" opacity="0.6" />
  <rect x="340" y="470" width="280" height="22" rx="11" fill="#0b6f3a" opacity="0.7" />
  <rect x="340" y="540" width="260" height="22" rx="11" fill="#0b6f3a" opacity="0.7" />
  <rect x="340" y="590" width="370" height="22" rx="11" fill="#0b6f3a" opacity="0.45" />
  <path d="M460 520L500 560L560 500" stroke="#00A3E0" stroke-width="20" stroke-linecap="round" stroke-linejoin="round" />
  <rect x="520" y="640" width="220" height="80" rx="40" fill="#00A3E0" />
  <text x="600" y="695" text-anchor="middle" font-family="Inter, sans-serif" font-size="36" font-weight="700" fill="#fff">Start</text>
</svg>
